<svg width="326" height="76" viewBox="0 0 326 76" fill="none" xmlns="http://www.w3.org/2000/svg">
<g clip-path="url(#clip0_33_270)">
<path d="M292.92 5.44604L264.086 22.0533L263.884 54.9731L292.558 71.2857L321.419 54.6785L321.594 21.7586L292.92 5.44604ZM292.732 11.1247C294.68 11.1247 296.264 12.0354 296.264 13.147C296.264 14.2586 294.68 15.1693 292.732 15.1693C290.785 15.1693 289.213 14.272 289.213 13.147C289.213 12.022 290.798 11.1247 292.732 11.1247ZM292.732 17.8211C295.015 17.8211 296.855 18.8792 296.855 20.1783C296.855 21.4774 294.975 22.5086 292.732 22.5086C290.489 22.5086 288.623 21.4506 288.623 20.1381C288.623 18.8256 290.462 17.7809 292.732 17.7809V17.8211ZM292.732 30.8658C290.046 30.8658 287.763 29.5265 287.763 27.9998C287.763 26.473 289.992 25.1471 292.732 25.1471C295.472 25.1471 297.661 26.3792 297.661 27.9596C297.661 29.5399 295.485 30.8257 292.732 30.8257V30.8658Z" fill="white"/>
<path d="M318.545 23.4863L293.175 37.7498V45.9195L318.008 32.7944V52.924L292.746 67.4687L267.457 52.924V23.8077L292.746 9.26299L303.96 15.7184L311.306 11.4193L292.746 0.731689L260.057 19.5488V57.1829L292.746 76L325.421 57.1829V19.5488L318.545 23.4863Z" fill="#FEBD2F"/>
<path d="M325.421 57.183V19.5488L318.545 23.4863L293.175 37.7498V45.9195L318.008 32.7944V52.924L292.745 67.4687L292.678 67.4286L292.155 75.6652L292.745 76L325.421 57.183Z" fill="#107793"/>
<path d="M267.457 52.924V23.8078L267.497 23.7944L260.07 19.5488H260.057V57.183L292.746 76V67.4687L267.457 52.924Z" fill="#F7972B"/>
</g>
<g clip-path="url(#clip1_33_270)">
<path d="M32.5568 72.5893C28.3933 72.6396 24.2584 71.8998 20.3755 70.4098C16.5219 68.8922 13.0353 66.5853 10.1439 63.64C7.06045 60.5188 4.67566 56.7886 3.14506 52.6928C1.34933 47.8815 0.478914 42.7794 0.578816 37.6506C0.380247 31.0797 1.85903 24.5655 4.8781 18.7117C7.52505 13.7438 11.5337 9.6172 16.4429 6.80682C21.3576 4.06227 26.9157 2.64986 32.5568 2.71192C41.2721 2.71192 48.1043 4.70983 53.1034 8.72217C58.2951 13.0963 61.8227 19.0967 63.1018 25.7292L50.0206 27.595C48.9807 23.954 46.8968 20.6903 44.0216 18.1999C41.0244 15.7739 37.2413 14.5068 33.3734 14.6333C29.6003 14.4363 25.858 15.3994 22.6585 17.3908C19.7439 19.369 17.5061 22.1795 16.2429 25.4485C14.7409 29.3406 14.0165 33.4847 14.1099 37.6506C14.0155 41.7912 14.746 45.9096 16.2595 49.7702C17.5429 53.0013 19.7785 55.7746 22.6752 57.7288C25.88 59.7253 29.6053 60.7471 33.39 60.6679C36.1133 60.7712 38.8249 60.2632 41.3221 59.1818C43.7328 58.092 45.8045 56.3814 47.3211 54.2283C49.0886 51.5994 50.2702 48.6273 50.7872 45.5102H40.0723V35.7353H64.4349C64.4349 36.1315 64.5349 36.8416 64.5682 37.8653C64.6015 38.889 64.5682 39.5164 64.5682 39.6485C64.6937 45.5643 63.3549 51.4204 60.6689 56.7051C58.1439 61.5642 54.2778 65.6126 49.5207 68.3788C44.3559 71.2802 38.4921 72.7356 32.5568 72.5893Z" fill="#FB8500"/>
<path d="M75.2663 72.061C73.2219 72.1258 71.1954 71.665 69.384 70.7236C67.8428 69.9219 66.5693 68.6944 65.7179 67.1901C64.8717 65.6755 64.4408 63.9676 64.4681 62.2366C64.4503 60.8517 64.6875 59.4752 65.168 58.1747C65.6298 56.9101 66.3963 55.7765 67.401 54.8723C68.6189 53.8295 70.0275 53.028 71.5503 52.5112C72.9551 52.029 74.3915 51.6428 75.8496 51.3554C77.516 51.0251 79.3823 50.6949 81.482 50.3977L88.4142 49.374L85.4646 51.0251C85.5313 50.2711 85.4447 49.5114 85.21 48.791C84.9753 48.0707 84.5973 47.4043 84.0982 46.8312C82.7621 45.867 81.1061 45.442 79.4656 45.6423C78.1685 45.6614 76.8903 45.9541 75.7163 46.5009C75.0692 46.7921 74.4923 47.2167 74.0239 47.7463C73.5555 48.2759 73.2065 48.8983 73.0001 49.5721L65.568 47.1779C66.3559 44.563 67.9969 42.2808 70.2339 40.6888C72.9579 38.8901 76.1972 38.0152 79.4656 38.1956C82.0701 38.1478 84.6599 38.5905 87.0977 39.5C89.2647 40.3457 91.0434 41.9495 92.0969 44.0077C92.7062 45.1117 93.0912 46.3234 93.23 47.5742C93.3642 48.9018 93.4254 50.2358 93.4133 51.57V71.2024H86.3145V64.5977L87.331 65.9682C86.0154 67.8926 84.2707 69.4914 82.2319 70.641C80.0608 71.6677 77.6701 72.1551 75.2663 72.061ZM76.9327 65.6875C78.1008 65.7346 79.2651 65.5285 80.3444 65.0836C81.4237 64.6387 82.392 63.9657 83.1817 63.1117C83.6733 62.6212 84.0939 62.0655 84.4315 61.4605C84.8715 60.5042 85.1205 59.4725 85.1647 58.4224C85.1647 57.25 85.2647 56.2924 85.2647 55.5163L87.6643 56.1107L81.7819 57.1014C80.2822 57.3821 79.0824 57.6133 78.1659 57.8444C77.3397 58.0265 76.5268 58.2637 75.7329 58.5545C75.0459 58.8099 74.396 59.1541 73.7999 59.5782C73.3486 59.8904 72.9776 60.3033 72.7168 60.7835C72.4799 61.2315 72.3596 61.7309 72.3668 62.2366C72.3475 62.9079 72.5461 63.5677 72.9334 64.1189C73.3237 64.6653 73.8689 65.0848 74.4998 65.3242C75.3026 65.6248 76.1588 65.7596 77.0161 65.7205L76.9327 65.6875Z" fill="#FB8500"/>
<path d="M97.7627 71.2022V39.0375H104.961V49.671H105.995V71.1362L97.7627 71.2022ZM117.326 71.2022V52.2468C117.436 50.4689 116.898 48.711 115.81 47.2933C115.275 46.7295 114.63 46.2802 113.913 45.973C113.197 45.6659 112.424 45.5074 111.644 45.5074C110.863 45.5074 110.091 45.6659 109.374 45.973C108.658 46.2802 108.012 46.7295 107.478 47.2933C106.423 48.5508 105.877 50.151 105.945 51.7845L102.562 49.3738C102.553 47.3711 103.132 45.409 104.228 43.7268C105.286 42.0712 106.755 40.7123 108.494 39.7805C110.342 38.7964 112.413 38.2963 114.51 38.3275C116.718 38.2487 118.899 38.8235 120.776 39.9786C122.376 41.0202 123.628 42.5084 124.375 44.2552C125.17 46.1023 125.573 48.0921 125.558 50.1003V71.2022H117.326ZM136.823 71.2022V52.2468C136.933 50.4689 136.395 48.711 135.306 47.2933C134.79 46.7041 134.145 46.2389 133.42 45.9329C132.696 45.6268 131.911 45.4879 131.124 45.5266C130.079 45.5015 129.048 45.7768 128.158 46.3191C127.305 46.851 126.623 47.6128 126.191 48.5152C125.701 49.5467 125.461 50.6777 125.491 51.8175L122.059 49.5059C122.017 47.5023 122.539 45.5269 123.566 43.8005C124.593 42.0742 126.085 40.6651 127.874 39.731C129.686 38.7824 131.708 38.2998 133.757 38.3275C135.306 38.2324 136.857 38.4794 138.297 39.0504C139.738 39.6215 141.033 40.5025 142.089 41.6298C144.057 44.0285 145.066 47.0614 144.922 50.1498V71.2022H136.823Z" fill="#FB8500"/>
<path d="M163.885 72.0609C160.82 72.1232 157.792 71.3888 155.103 69.9309C152.622 68.551 150.57 66.5237 149.171 64.0692C147.685 61.4731 146.921 58.5334 146.955 55.5492C146.878 52.3694 147.599 49.2205 149.054 46.3852C150.377 43.8722 152.387 41.7781 154.853 40.342C157.431 38.8757 160.363 38.1336 163.335 38.1954C166.4 38.0997 169.422 38.9289 172 40.5731C174.402 42.2213 176.225 44.5704 177.216 47.2934C178.412 50.5272 178.823 53.9946 178.416 57.415H170.351V54.4429C170.525 51.9801 169.944 49.5226 168.684 47.3924C168.075 46.6404 167.288 46.0493 166.392 45.6719C165.497 45.2945 164.521 45.1425 163.552 45.2294C162.402 45.1352 161.246 45.3138 160.18 45.7502C159.113 46.1866 158.167 46.8684 157.419 47.7392C155.997 49.9421 155.341 52.546 155.553 55.1529C155.393 57.6469 156.105 60.1195 157.569 62.1539C158.267 62.9836 159.154 63.6376 160.156 64.0624C161.158 64.4872 162.248 64.6706 163.335 64.5976C164.778 64.6375 166.204 64.2772 167.451 63.5574C168.615 62.8295 169.523 61.7625 170.051 60.5027L178.216 62.8144C177.084 65.6517 175.055 68.0497 172.434 69.6502C169.871 71.2377 166.907 72.0736 163.885 72.0609ZM153.153 57.3655V51.4048H174.55V57.3985L153.153 57.3655Z" fill="#FB8500"/>
<path d="M196.88 72.0609C193.814 72.1255 190.786 71.391 188.098 69.9309C185.632 68.5624 183.596 66.5452 182.215 64.1023C180.73 61.4948 179.971 58.543 180.016 55.5492C179.939 52.3694 180.66 49.2205 182.115 46.3853C183.438 43.877 185.44 41.7841 187.898 40.342C190.482 38.8775 193.42 38.1356 196.396 38.1955C199.461 38.1028 202.482 38.9318 205.062 40.5732C207.464 42.1858 209.308 44.4915 210.344 47.1778C211.524 50.4155 211.934 53.8791 211.544 57.2995H203.478V54.3274C203.653 51.8645 203.072 49.407 201.812 47.2769C201.199 46.5246 200.409 45.9337 199.511 45.5564C198.613 45.1791 197.635 45.0271 196.663 45.1139C195.508 45.0383 194.351 45.2354 193.288 45.6889C192.225 46.1424 191.286 46.8395 190.547 47.7227C189.094 49.9217 188.404 52.5302 188.581 55.153C188.414 57.6403 189.108 60.1096 190.547 62.1539C191.249 62.9839 192.138 63.6379 193.143 64.0626C194.148 64.4873 195.24 64.6706 196.33 64.5976C197.768 64.6398 199.188 64.2792 200.429 63.5574C201.624 62.8427 202.562 61.7742 203.112 60.5027L211.277 62.8144C210.152 65.6409 208.143 68.0363 205.545 69.6502C202.948 71.2572 199.941 72.0938 196.88 72.0609ZM186.131 57.3655V51.4048H207.611V57.3986L186.131 57.3655Z" fill="#FB8500"/>
<path d="M211.277 45.345V39.0375H234.307V45.2789L211.277 45.345ZM234.307 71.2022C232.138 71.6096 229.932 71.7922 227.724 71.7471C225.747 71.7318 223.791 71.3452 221.959 70.6078C220.318 69.9486 218.957 68.7468 218.109 67.2064C217.335 65.8355 216.901 64.3017 216.843 62.7318C216.843 61.2237 216.843 59.5065 216.843 57.5801V30.1873H224.991V57.1013C224.991 58.3562 224.991 59.479 224.991 60.4862C224.98 61.3242 225.192 62.1504 225.608 62.8804C225.983 63.4466 226.495 63.9109 227.098 64.231C227.7 64.5511 228.374 64.7169 229.058 64.7132C230.811 64.8024 232.568 64.725 234.307 64.482V71.2022Z" fill="#FB8500"/>
</g>
<defs>
<clipPath id="clip0_33_270">
<rect width="65.3646" height="75.2683" fill="white" transform="translate(260.057 0.731689)"/>
</clipPath>
<clipPath id="clip1_33_270">
<rect width="233.728" height="69.8774" fill="white" transform="translate(0.578857 2.71191)"/>
</clipPath>
</defs>
</svg>
